<svg
  xmlns="http://www.w3.org/2000/svg"
  viewBox="0 0 96 96"
  enable-background="new 0 0 96 96"
  xml:space="preserve"
>
  <path
    d="M45.053,60.393c0.655,4.838,3.162,9.649,7.06,13.548c4.592,4.592,10.405,7.225,15.948,7.225c3.806,0,7.078-1.26,9.461-3.643  c6.018-6.019,4.412-17.417-3.581-25.41c-4.591-4.592-10.404-7.225-15.947-7.225c-1.963,0-3.78,0.341-5.411,0.992v6.704h-6.695  C44.97,54.879,44.666,57.533,45.053,60.393z M52.613,66.497v-0.75h0.75l12.385,0.002l0-12.386v-0.75h0.75h0.75l0,14.636  l-14.635-0.002V66.497z"
  />
  <path
    d="M22.062,43.888c4.575,4.575,10.362,7.205,15.888,7.224v-0.028h0.75h0.031h4.179h2.014l0.021,0.001h0.822h0.837h4.481v-4.475  v-0.844v-0.859v-1.997v-3.877v-0.334v-0.75h0.013c-0.003-0.765-0.04-1.541-0.147-2.341c-0.654-4.838-3.162-9.649-7.06-13.547  c-4.591-4.592-10.404-7.225-15.947-7.225c-3.807,0-7.08,1.26-9.463,3.644c-2.887,2.887-4.122,7.1-3.478,11.861  C15.656,35.179,18.164,39.99,22.062,43.888z M43.389,28.754v0.75v0.75h-0.75H30.253l0.001,12.385v0.75h-0.75h-0.75l-0.001-14.635  H43.389z"
  />
</svg>
